Coordinates
version=1
nRows=6
nColumns=34
inDegrees=yes

Units are S.I. units (second, meters, Newtons, ...)
If the header above contains a line with 'inDegrees', this indicates whether rotational values are in degrees (yes) or radians (no).

endheader
time	pelvis_tilt	pelvis_list	pelvis_rotation	pelvis_tx	pelvis_ty	pelvis_tz	hip_flexion_r	hip_adduction_r	hip_rotation_r	knee_angle_r	ankle_angle_r	subtalar_angle_r	mtp_angle_r	hip_flexion_l	hip_adduction_l	hip_rotation_l	knee_angle_l	ankle_angle_l	subtalar_angle_l	mtp_angle_l	lumbar_extension	lumbar_bending	lumbar_rotation	arm_flex_r	arm_add_r	arm_rot_r	elbow_flex_r	pro_sup_r	arm_flex_l	arm_add_l	arm_rot_l	elbow_flex_l	pro_sup_l
      5.10000000	      0.34821060	     -0.35371338	      6.94334553	      0.94354818	      0.95494606	     -0.05664350	     -2.85788780	      3.21913459	     -9.42939374	      1.37274958	      6.25807134	      5.78074821	      0.00000000	      4.98530679	     -4.36434907	     -3.18326172	     11.66441886	     14.12730024	     10.94441577	      0.00000000	      6.59089241	      3.10819143	      4.39666277	     -5.70146884	     -6.05315387	     -1.31582396	     23.10282149	     97.34522559	     -3.05249029	     -5.33885899	     17.06194520	     17.56304697	     89.51432065
      5.11666670	      0.68775345	     -0.45509805	      6.42630678	      0.94611914	      0.94798330	     -0.05508446	     -2.96706205	      3.32815665	     -9.12215646	      2.19001216	      7.16478004	      5.65358267	      0.00000000	      5.44907693	     -4.73715679	     -3.12656327	     13.75349976	     14.84514742	     10.30018218	      0.00000000	      6.29455808	      3.21174583	      4.13439600	     -5.45921705	     -6.19048474	     -1.18264137	     23.45878870	     97.46354854	     -3.27407345	     -5.38974717	     17.17687268	     17.60883744	     89.61622812
      5.13333330	      0.96807534	     -0.59542121	      5.57556440	      0.94310194	      0.94743204	     -0.05421760	     -2.91247239	      3.40489229	     -8.84308383	      3.13711238	      7.75786608	      5.55493674	      0.00000000	      6.10247118	     -5.15467619	     -3.08037356	     16.14006830	     15.63452948	      9.42195736	      0.00000000	      5.96169857	      3.36546228	      3.89734578	     -5.17321421	     -6.40327332	     -1.06347872	     23.85932582	     97.58580514	     -3.56212386	     -5.39869042	     17.26985397	     17.67927552	     89.71449832
      5.15000000	      1.33364670	     -0.83114369	      4.48761367	      0.94210509	      0.94259654	     -0.05288211	     -2.88427221	      3.59993553	     -8.14291262	      4.00640824	      8.87005140	      5.45025446	      0.00000000	      6.79589145	     -5.71154799	     -2.83550756	     18.79786292	     16.70774010	      8.41139780	      0.00000000	      5.61788771	      3.60957682	      3.61431309	     -4.79341649	     -6.64135404	     -0.97101014	     24.29376426	     97.69069979	     -3.81057944	     -5.42137676	     17.32076490	     17.73071001	     89.79480215
      5.16666670	      1.66678295	     -1.09965731	      3.33261343	      0.93935158	      0.93804326	     -0.05204417	     -2.78784145	      3.80604920	     -7.34012009	      4.96541360	     10.16083693	      5.22936387	      0.00000000	      7.64521428	     -6.29204418	     -2.18583292	     21.85374995	     18.03155933	      7.39482279	      0.00000000	      5.33573423	      3.86944428	      3.27982429	     -4.36666283	     -6.91238166	     -0.87832416	     24.75973574	     97.78499520	     -3.97313748	     -5.42805924	     17.33833860	     17.80153616	     89.86272953
      5.18333330	      2.05347056	     -1.41919829	      2.09540063	      0.94335356	      0.93414255	     -0.05122282	     -2.83036238	      4.05549317	     -6.23803252	      5.79451935	     11.55231609	      5.06858388	      0.00000000	      8.53624373	     -6.94135355	     -0.97355220	     25.52889253	     19.26114317	      6.58711476	      0.00000000	      5.20750406	      4.21577822	      2.96181789	     -4.15024641	     -7.18581053	     -0.76743327	     25.20713291	     97.87240223	     -4.31808531	     -5.42128543	     17.31344395	     17.90135793	     89.91596165
